# xmcd
#
# Track frame offsets: 
#        150
#        7650
#        19992
#        27755
#        75022
#        124135
#        138672
#        146727
#        157490
#        171642
#        183062
#        190967
#        205150
#        214490
#
# Disc length: 4008 seconds
#
# Revision: 8
# Processed by: cddbd v1.5.2PL0 Copyright (c) Steve Scherf et al.
# Submitted via: ExactAudioCopy v1.3
#
DISCID=c50fa60e
DTITLE=Paul Van Nevel - VIVARTE - 60 CD Collection Vol. 2 [CD 8) Antoi
DTITLE=ne Brumel
DYEAR=1990
DGENRE=Renaissance
TTITLE0=Missa 'Et ecce terrae motus' a 12 voci - Kyrie - 1. Kyrie elei
TTITLE0=son
TTITLE1=Missa 'Et ecce terrae motus' - 2. Christe eleison
TTITLE2=Missa 'Et ecce terrae motus' - 3. Kyrie eleison
TTITLE3=Missa 'Et ecce terrae motus' - Gloria
TTITLE4=Missa 'Et ecce terrae motus' - Credo
TTITLE5=Missa 'Et ecce terrae motus' - Sanctus - 1. Sanctus
TTITLE6=Missa 'Et ecce terrae motus' - 2. Pleni sunt caeli
TTITLE7=Missa 'Et ecce terrae motus' - 3. Hosanna
TTITLE8=Missa 'Et ecce terrae motus' - 4. Benedictus
TTITLE9=Missa 'Et ecce terrae motus' - 5. Hosanna
TTITLE10=Missa 'Et ecce terrae motus' - Agnus Dei - 1. Agnus Dei I
TTITLE11=Missa 'Et ecce terrae motus' - 2. Agnus Dei II
TTITLE12=Missa 'Et ecce terrae motus' - 3. Agnus Dei III
TTITLE13=Sequentia  'Dies irae, Dies illa'
EXTD=YEAR: 1991
EXTT0=
EXTT1=
EXTT2=
EXTT3=
EXTT4=
EXTT5=
EXTT6=
EXTT7=
EXTT8=
EXTT9=
EXTT10=
EXTT11=
EXTT12=
EXTT13=
PLAYORDER=
